<?xml version="1.0" encoding="iso-8859-1"?>
<!-- Generator: Adobe Illustrator 19.0.0, SVG Export Plug-In . SVG Version: 6.00 Build 0)  -->
<svg xmlns="http://www.w3.org/2000/svg" xmlns:xlink="http://www.w3.org/1999/xlink" version="1.1" id="Capa_1" x="0px" y="0px" viewBox="0 0 512 512" style="enable-background:new 0 0 512 512;" xml:space="preserve" width="512px" height="512px">
<g>
	<g>
		<g>
			<path d="M504,24H8c-4.418,0-8,3.582-8,8v448c0,4.418,3.582,8,8,8h496c4.418,0,8-3.582,8-8V32C512,27.582,508.418,24,504,24z      M496,88H112V40h384V88z M96,40v48H16V40H96z M16,472V104h480v368H16z" fill="#327fc7"/>
			<path d="M464,128H48c-4.418,0-8,3.582-8,8v304c0,4.418,3.582,8,8,8h416c4.418,0,8-3.582,8-8V136C472,131.582,468.418,128,464,128     z M456,144v24H56v-24H456z M425.704,326.888l-56.56-56.56c-3.124-3.123-8.188-3.123-11.312,0l-22.04,22.032     c-10.115-5.472-20.769-9.882-31.792-13.16V248c0-4.418-3.582-8-8-8h-80c-4.418,0-8,3.582-8,8v31.2     c-11.011,3.27-21.654,7.669-31.76,13.128l-22.04-22.032c-3.124-3.123-8.188-3.123-11.312,0l-56.56,56.56     c-3.123,3.124-3.123,8.188,0,11.312l22.032,22.04c-5.472,10.115-9.882,20.769-13.16,31.792H56V184h400v208h-39.2     c-3.27-11.011-7.669-21.654-13.128-31.76l22.032-22.04C428.827,335.076,428.827,330.012,425.704,326.888z M256,384     c28.211,0,51.539,20.863,55.422,48H200.578C204.461,404.863,227.789,384,256,384z M264,368.453v-32.15     c51.059,3.884,91.813,44.638,95.697,95.697h-32.15C323.857,398.63,297.37,372.143,264,368.453z M248,368.453     c-33.37,3.691-59.857,30.177-63.547,63.547h-32.15c3.884-51.059,44.638-91.813,95.697-95.697V368.453z M375.728,432     C371.61,369.457,319.585,320,256,320s-115.61,49.457-119.728,112H56v-24h45.24c3.647-0.001,6.832-2.469,7.744-6     c3.542-13.719,8.99-26.874,16.184-39.08c1.858-3.144,1.351-7.147-1.232-9.728l-20.672-20.68l45.248-45.248l20.68,20.672     c2.581,2.583,6.584,3.09,9.728,1.232c12.206-7.194,25.361-12.642,39.08-16.184c3.531-0.912,5.999-4.097,6-7.744V256h64v29.24     c0.001,3.647,2.469,6.832,6,7.744c13.719,3.542,26.874,8.99,39.08,16.184c3.144,1.858,7.147,1.351,9.728-1.232l20.68-20.672     l45.248,45.248l-20.672,20.68c-2.583,2.581-3.09,6.584-1.232,9.728c7.194,12.206,12.642,25.361,16.184,39.08     c0.912,3.531,4.097,5.999,7.744,6H456v24H375.728z" fill="#327fc7"/>
			<rect x="32" y="56" width="16" height="16" fill="#327fc7"/>
			<rect x="64" y="56" width="16" height="16" fill="#327fc7"/>
			<rect x="464" y="56" width="16" height="16" fill="#327fc7"/>
			<rect x="432" y="56" width="16" height="16" fill="#327fc7"/>
			<path d="M72,208v24h16v-16h16v-16H80C75.582,200,72,203.582,72,208z" fill="#327fc7"/>
			<path d="M440,208c0-4.418-3.582-8-8-8h-24v16h16v16h16V208z" fill="#327fc7"/>
		</g>
	</g>
</g>
<g>
</g>
<g>
</g>
<g>
</g>
<g>
</g>
<g>
</g>
<g>
</g>
<g>
</g>
<g>
</g>
<g>
</g>
<g>
</g>
<g>
</g>
<g>
</g>
<g>
</g>
<g>
</g>
<g>
</g>
</svg>
